# Blender 4.2.1 LTS
# www.blender.org
mtllib 45_degree.mtl
o entity0_brush0
v -80.000000 -0.000005 -64.000000
v -32.000000 0.000004 48.000000
v -32.000000 16.000004 48.000000
v -80.000000 15.999995 -64.000000
v 16.000000 16.000004 48.000000
v 16.000000 0.000004 48.000000
v 64.000000 -0.000005 -64.000000
v 64.000000 15.999995 -64.000000
vn -0.9191 -0.0000 0.3939
vn -0.0000 -0.0000 1.0000
vn -0.0000 -1.0000 -0.0000
vn -0.0000 1.0000 -0.0000
vn -0.0000 -0.0000 -1.0000
vn 0.9191 -0.0000 0.3939
vt 64.000000 -0.000000
vt -48.000000 -0.000000
vt -48.000000 16.000000
vt 64.000000 16.000000
vt 24.000002 16.000000
vt -48.000004 16.000000
vt -48.000004 -0.000000
vt 24.000002 -0.000000
vt 16.000000 -48.000000
vt -32.000000 -48.000000
vt -80.000000 64.000000
vt 64.000000 64.000000
vt 1.144560 1.006126
vt 0.005565 1.006126
vt 0.385230 0.120240
vt 0.764895 0.120240
vt 38.400005 -0.000000
vt 38.400005 16.000000
vt 63.206898 16.000000
vt -48.793102 16.000000
vt -48.793102 -0.000000
vt 63.206898 -0.000000
s 0
usemtl Material.003
f 1/1/1 2/2/1 3/3/1 4/4/1
f 5/5/2 3/6/2 2/7/2 6/8/2
f 6/9/3 2/10/3 1/11/3 7/12/3
f 8/13/4 4/14/4 3/15/4 5/16/4
f 7/17/5 1/7/5 4/6/5 8/18/5
f 8/19/6 5/20/6 6/21/6 7/22/6
o entity0_brush1
v -160.000000 -32.000023 -288.000000
v -160.000000 -32.000008 -80.000000
v -160.000000 -0.000006 -80.000000
v -160.000000 -0.000022 -288.000000
v 128.000000 -0.000006 -80.000000
v 128.000000 -32.000008 -80.000000
v 128.000000 -32.000023 -288.000000
v 128.000000 -0.000022 -288.000000
vn -1.0000 -0.0000 -0.0000
vn -0.0000 -0.0000 1.0000
vn -0.0000 -1.0000 -0.0000
vn -0.0000 1.0000 -0.0000
vn -0.0000 -0.0000 -1.0000
vn 1.0000 -0.0000 -0.0000
vt 288.000000 -32.000000
vt 80.000000 -32.000000
vt 80.000000 -0.000000
vt 288.000000 -0.000000
vt 128.000000 -0.000000
vt -160.000000 -0.000000
vt -160.000000 -32.000000
vt 128.000000 -32.000000
vt 128.000000 80.000000
vt -160.000000 80.000000
vt -160.000000 288.000000
vt 128.000000 288.000000
s 0
usemtl __TB_empty
f 9/23/7 10/24/7 11/25/7 12/26/7
f 13/27/8 11/28/8 10/29/8 14/30/8
f 14/31/9 10/32/9 9/33/9 15/34/9
f 16/34/10 12/33/10 11/32/10 13/31/10
f 15/30/11 9/29/11 12/28/11 16/27/11
f 16/26/12 13/25/12 14/24/12 15/23/12
o entity0_brush10
v 69.328491 -0.000006 -76.433144
v 64.000000 -0.000005 -64.000000
v 64.000000 79.999992 -64.000008
v 69.328491 79.999992 -76.433151
v 148.686295 80.000000 43.313702
v 148.686295 0.000003 43.313709
v 160.000000 0.000003 38.464977
v 160.000000 80.000000 38.464970
vn -0.9191 -0.0000 -0.3939
vn -0.7850 -0.0000 0.6195
vn -0.0000 -1.0000 -0.0000
vn -0.0000 1.0000 -0.0000
vn 0.3939 -0.0000 0.9191
vn 0.7850 -0.0000 -0.6195
vt 76.433144 -0.000000
vt 64.000000 -0.000000
vt 64.000000 80.000000
vt 76.433144 80.000000
vt -43.313709 80.000000
vt -43.313709 -0.000000
vt 160.000000 -38.464977
vt 148.686295 -43.313709
vt 64.000000 64.000000
vt 69.328491 76.433144
vt 160.000000 80.000000
vt 148.686295 80.000000
vt 148.686295 -0.000000
vt 160.000000 -0.000000
vt 76.070503 -0.000000
vt 76.070503 80.000000
vt -38.827614 80.000000
vt -38.827614 -0.000000
s 0
usemtl __TB_empty
f 17/35/13 18/36/13 19/37/13 20/38/13
f 21/39/14 19/37/14 18/36/14 22/40/14
f 23/41/15 22/42/15 18/43/15 17/44/15
f 20/44/16 19/43/16 21/42/16 24/41/16
f 24/45/17 21/46/17 22/47/17 23/48/17
f 17/49/18 20/50/18 24/51/18 23/52/18
o entity0_brush11
v -85.328491 -0.000006 -76.433144
v -176.000000 0.000003 38.464977
v -176.000000 80.000000 38.464970
v -85.328491 79.999992 -76.433151
v -164.686295 80.000000 43.313702
v -164.686295 0.000003 43.313709
v -80.000000 -0.000005 -64.000000
v -80.000000 79.999992 -64.000008
vn -0.7850 -0.0000 -0.6195
vn -0.3939 -0.0000 0.9191
vn -0.0000 -1.0000 -0.0000
vn -0.0000 1.0000 -0.0000
vn 0.7850 -0.0000 0.6195
vn 0.9191 -0.0000 -0.3939
vt 76.070503 -0.000000
vt -38.827614 -0.000000
vt -38.827614 80.000000
vt 76.070503 80.000000
vt -164.686295 80.000000
vt -176.000000 80.000000
vt -176.000000 -0.000000
vt -164.686295 -0.000000
vt -80.000000 64.000000
vt -164.686295 -43.313709
vt -176.000000 -38.464977
vt -85.328491 76.433144
vt 64.000000 80.000000
vt -43.313709 80.000000
vt -43.313709 -0.000000
vt 64.000000 -0.000000
vt 76.433144 -0.000000
vt 76.433144 80.000000
s 0
usemtl __TB_empty
f 25/53/19 26/54/19 27/55/19 28/56/19
f 29/57/20 27/58/20 26/59/20 30/60/20
f 31/61/21 30/62/21 26/63/21 25/64/21
f 28/64/22 27/63/22 29/62/22 32/61/22
f 32/65/23 29/66/23 30/67/23 31/68/23
f 25/69/24 28/70/24 32/65/24 31/68/24
o entity0_brush12
v 32.000000 -0.000006 -80.000000
v 32.000000 -0.000005 -64.000000
v 32.000000 111.999992 -64.000008
v 32.000000 111.999992 -80.000008
v 128.000000 111.999992 -64.000008
v 128.000000 -0.000005 -64.000000
v 128.000000 -0.000006 -80.000000
v 128.000000 111.999992 -80.000008
vn -1.0000 -0.0000 -0.0000
vn -0.0000 -0.0000 1.0000
vn -0.0000 -1.0000 -0.0000
vn -0.0000 1.0000 -0.0000
vn -0.0000 -0.0000 -1.0000
vn 1.0000 -0.0000 -0.0000
vt 80.000000 -0.000000
vt 64.000000 -0.000000
vt 64.000000 112.000000
vt 80.000000 112.000000
vt 128.000000 112.000000
vt 32.000000 112.000000
vt 32.000000 -0.000000
vt 128.000000 -0.000000
vt 128.000000 64.000000
vt 32.000000 64.000000
vt 32.000000 80.000000
vt 128.000000 80.000000
s 0
usemtl __TB_empty
f 33/71/25 34/72/25 35/73/25 36/74/25
f 37/75/26 35/76/26 34/77/26 38/78/26
f 38/79/27 34/80/27 33/81/27 39/82/27
f 40/82/28 36/81/28 35/80/28 37/79/28
f 39/78/29 33/77/29 36/76/29 40/75/29
f 40/74/30 37/73/30 38/72/30 39/71/30
o entity0_brush13
v -160.000000 -0.000006 -80.000000
v -160.000000 -0.000005 -64.000000
v -160.000000 111.999992 -64.000008
v -160.000000 111.999992 -80.000008
v -64.000000 111.999992 -64.000008
v -64.000000 -0.000005 -64.000000
v -64.000000 -0.000006 -80.000000
v -64.000000 111.999992 -80.000008
vn -1.0000 -0.0000 -0.0000
vn -0.0000 -0.0000 1.0000
vn -0.0000 -1.0000 -0.0000
vn -0.0000 1.0000 -0.0000
vn -0.0000 -0.0000 -1.0000
vn 1.0000 -0.0000 -0.0000
vt 80.000000 -0.000000
vt 64.000000 -0.000000
vt 64.000000 112.000000
vt 80.000000 112.000000
vt -64.000000 112.000000
vt -160.000000 112.000000
vt -160.000000 -0.000000
vt -64.000000 -0.000000
vt -64.000000 64.000000
vt -160.000000 64.000000
vt -160.000000 80.000000
vt -64.000000 80.000000
s 0
usemtl __TB_empty
f 41/83/31 42/84/31 43/85/31 44/86/31
f 45/87/32 43/88/32 42/89/32 46/90/32
f 46/91/33 42/92/33 41/93/33 47/94/33
f 48/94/34 44/93/34 43/92/34 45/91/34
f 47/90/35 41/89/35 44/88/35 48/87/35
f 48/86/36 45/85/36 46/84/36 47/83/36
o entity0_brush14
v -64.000000 -0.000006 -80.000000
v -64.000000 -0.000005 -64.000000
v -64.000000 15.999995 -64.000000
v -64.000000 15.999994 -80.000000
v 32.000000 15.999995 -64.000000
v 32.000000 -0.000005 -64.000000
v 32.000000 -0.000006 -80.000000
v 32.000000 15.999994 -80.000000
vn -1.0000 -0.0000 -0.0000
vn -0.0000 -0.0000 1.0000
vn -0.0000 -1.0000 -0.0000
vn -0.0000 1.0000 -0.0000
vn -0.0000 -0.0000 -1.0000
vn 1.0000 -0.0000 -0.0000
vt 80.000000 -0.000000
vt 64.000000 -0.000000
vt 64.000000 16.000000
vt 80.000000 16.000000
vt 32.000000 16.000000
vt -64.000000 16.000000
vt -64.000000 -0.000000
vt 32.000000 -0.000000
vt 32.000000 64.000000
vt -64.000000 64.000000
vt -64.000000 80.000000
vt 32.000000 80.000000
s 0
usemtl __TB_empty
f 49/95/37 50/96/37 51/97/37 52/98/37
f 53/99/38 51/100/38 50/101/38 54/102/38
f 54/103/39 50/104/39 49/105/39 55/106/39
f 56/106/40 52/105/40 51/104/40 53/103/40
f 55/102/41 49/101/41 52/100/41 56/99/41
f 56/98/42 53/97/42 54/96/42 55/95/42
o entity0_brush15
v -64.000000 79.999992 -80.000008
v -64.000000 79.999992 -64.000008
v -64.000000 111.999992 -64.000008
v -64.000000 111.999992 -80.000008
v 32.000000 111.999992 -64.000008
v 32.000000 79.999992 -64.000008
v 32.000000 79.999992 -80.000008
v 32.000000 111.999992 -80.000008
vn -1.0000 -0.0000 -0.0000
vn -0.0000 -0.0000 1.0000
vn -0.0000 -1.0000 -0.0000
vn -0.0000 1.0000 -0.0000
vn -0.0000 -0.0000 -1.0000
vn 1.0000 -0.0000 -0.0000
vt 80.000000 80.000000
vt 64.000000 80.000000
vt 64.000000 112.000000
vt 80.000000 112.000000
vt 32.000000 112.000000
vt -64.000000 112.000000
vt -64.000000 80.000000
vt 32.000000 80.000000
vt 32.000000 64.000000
vt -64.000000 64.000000
s 0
usemtl __TB_empty
f 57/107/43 58/108/43 59/109/43 60/110/43
f 61/111/44 59/112/44 58/113/44 62/114/44
f 62/115/45 58/116/45 57/113/45 63/114/45
f 64/114/46 60/113/46 59/116/46 61/115/46
f 63/114/47 57/113/47 60/112/47 64/111/47
f 64/110/48 61/109/48 62/108/48 63/107/48
o entity0_brush16
v -160.000000 95.999977 -288.000000
v -160.000000 95.999992 -80.000008
v -160.000000 111.999992 -80.000008
v -160.000000 111.999977 -288.000000
v 128.000000 111.999992 -80.000008
v 128.000000 95.999992 -80.000008
v 128.000000 95.999977 -288.000000
v 128.000000 111.999977 -288.000000
vn -1.0000 -0.0000 -0.0000
vn -0.0000 -0.0000 1.0000
vn -0.0000 -1.0000 -0.0000
vn -0.0000 1.0000 -0.0000
vn -0.0000 -0.0000 -1.0000
vn 1.0000 -0.0000 -0.0000
vt 288.000000 96.000000
vt 80.000000 96.000000
vt 80.000000 112.000000
vt 288.000000 112.000000
vt 128.000000 112.000000
vt -160.000000 112.000000
vt -160.000000 96.000000
vt 128.000000 96.000000
vt 128.000000 80.000000
vt -160.000000 80.000000
vt -160.000000 288.000000
vt 128.000000 288.000000
s 0
usemtl __TB_empty
f 65/117/49 66/118/49 67/119/49 68/120/49
f 69/121/50 67/122/50 66/123/50 70/124/50
f 70/125/51 66/126/51 65/127/51 71/128/51
f 72/128/52 68/127/52 67/126/52 69/125/52
f 71/124/53 65/123/53 68/122/53 72/121/53
f 72/120/54 69/119/54 70/118/54 71/117/54
o entity0_brush17
v -80.000000 79.999992 -64.000008
v -164.686295 80.000000 43.313702
v -164.686295 96.000000 43.313702
v -80.000000 95.999992 -64.000008
v -52.686291 96.000008 91.313698
v -52.686291 80.000008 91.313698
v -32.000000 80.000000 47.999992
v -32.000000 96.000000 47.999992
vn -0.7850 -0.0000 -0.6195
vn -0.3939 -0.0000 0.9191
vn -0.0000 -1.0000 -0.0000
vn -0.0000 1.0000 -0.0000
vn 0.9024 -0.0000 0.4310
vn 0.9191 -0.0000 -0.3939
vt 64.000000 80.000000
vt -43.313709 80.000000
vt -43.313709 96.000000
vt 64.000000 96.000000
vt -52.686291 96.000000
vt -164.686295 96.000000
vt -164.686295 80.000000
vt -52.686291 80.000000
vt -32.000000 -48.000000
vt -52.686291 -91.313705
vt -164.686295 -43.313709
vt -80.000000 64.000000
vt -48.000000 96.000000
vt -91.313705 96.000000
vt -91.313705 80.000000
vt -48.000000 80.000000
s 0
usemtl __TB_empty
f 73/129/55 74/130/55 75/131/55 76/132/55
f 77/133/56 75/134/56 74/135/56 78/136/56
f 79/137/57 78/138/57 74/139/57 73/140/57
f 76/140/58 75/139/58 77/138/58 80/137/58
f 80/141/59 77/142/59 78/143/59 79/144/59
f 76/132/60 80/141/60 79/144/60 73/129/60
o entity0_brush18
v 64.000000 79.999992 -64.000008
v 16.000000 80.000000 47.999992
v 16.000000 96.000000 47.999992
v 64.000000 95.999992 -64.000008
v 36.686291 96.000008 91.313698
v 36.686291 80.000008 91.313698
v 148.686295 80.000000 43.313702
v 148.686295 96.000000 43.313702
vn -0.9191 -0.0000 -0.3939
vn -0.9024 -0.0000 0.4310
vn -0.0000 -1.0000 -0.0000
vn -0.0000 1.0000 -0.0000
vn 0.3939 -0.0000 0.9191
vn 0.7850 -0.0000 -0.6195
vt 64.000000 80.000000
vt -48.000000 80.000000
vt -48.000000 96.000000
vt 64.000000 96.000000
vt -91.313705 96.000000
vt -91.313705 80.000000
vt 148.686295 -43.313709
vt 36.686291 -91.313705
vt 16.000000 -48.000000
vt 64.000000 64.000000
vt 148.686295 96.000000
vt 36.686291 96.000000
vt 36.686291 80.000000
vt 148.686295 80.000000
vt -43.313709 96.000000
vt -43.313709 80.000000
s 0
usemtl __TB_empty
f 81/145/61 82/146/61 83/147/61 84/148/61
f 85/149/62 83/147/62 82/146/62 86/150/62
f 87/151/63 86/152/63 82/153/63 81/154/63
f 84/154/64 83/153/64 85/152/64 88/151/64
f 88/155/65 85/156/65 86/157/65 87/158/65
f 81/145/66 84/148/66 88/159/66 87/160/66
o entity0_brush19
v -80.000000 79.999992 -64.000008
v -32.000000 80.000000 47.999992
v -32.000000 96.000000 47.999992
v -80.000000 95.999992 -64.000008
v 16.000000 96.000000 47.999992
v 16.000000 80.000000 47.999992
v 64.000000 79.999992 -64.000008
v 64.000000 95.999992 -64.000008
vn -0.9191 -0.0000 0.3939
vn -0.0000 -0.0000 1.0000
vn -0.0000 -1.0000 -0.0000
vn -0.0000 1.0000 -0.0000
vn -0.0000 -0.0000 -1.0000
vn 0.9191 -0.0000 0.3939
vt 64.000000 80.000000
vt -48.000000 80.000000
vt -48.000000 96.000000
vt 64.000000 96.000000
vt 24.000002 96.000000
vt -48.000004 96.000000
vt -48.000004 80.000000
vt 24.000002 80.000000
vt 16.000000 -48.000000
vt -32.000000 -48.000000
vt -80.000000 64.000000
vt 64.000000 64.000000
vt 38.400005 80.000000
vt 38.400005 96.000000
vt 63.206898 96.000000
vt -48.793102 96.000000
vt -48.793102 80.000000
vt 63.206898 80.000000
s 0
usemtl __TB_empty
f 89/161/67 90/162/67 91/163/67 92/164/67
f 93/165/68 91/166/68 90/167/68 94/168/68
f 94/169/69 90/170/69 89/171/69 95/172/69
f 96/172/70 92/171/70 91/170/70 93/169/70
f 95/173/71 89/167/71 92/166/71 96/174/71
f 96/175/72 93/176/72 94/177/72 95/178/72
o entity0_brush2
v 64.000000 -0.000005 -64.000000
v 16.000000 0.000004 48.000000
v 16.000000 16.000004 48.000000
v 64.000000 15.999995 -64.000000
v 36.686291 16.000008 91.313705
v 36.686291 0.000007 91.313705
v 148.686295 0.000003 43.313709
v 148.686295 16.000004 43.313709
vn -0.9191 -0.0000 -0.3939
vn -0.9024 -0.0000 0.4310
vn -0.0000 -1.0000 -0.0000
vn -0.0000 1.0000 -0.0000
vn 0.3939 -0.0000 0.9191
vn 0.7850 -0.0000 -0.6195
vt -0.000000 0.000000
vt 0.000000 0.445661
vt 0.063666 0.445661
vt 0.063666 -0.000000
vt 0.063666 0.618011
vt 0.000000 0.618011
vt 0.531833 -0.000000
vt 0.063666 0.126146
vt 0.105818 0.312434
vt 0.531833 0.543961
vt 0.724392 0.814647
vt 0.298377 0.583120
vt 0.256225 0.396832
vt 0.724392 0.270686
vt 0.127332 0.543961
vt 0.127332 0.989621
vt 0.063666 0.989621
vt 0.063666 0.543961
vt 0.063666 0.427013
vt 0.000000 0.427013
s 0
usemtl Material.001
f 97/179/73 98/180/73 99/181/73 100/182/73
f 101/183/74 99/181/74 98/180/74 102/184/74
f 103/185/75 102/186/75 98/187/75 97/188/75
f 100/189/76 99/190/76 101/191/76 104/192/76
f 104/193/77 101/194/77 102/195/77 103/196/77
f 97/179/78 100/182/78 104/197/78 103/198/78
o entity0_brush20
v 144.000000 -15.999997 32.000000
v 144.000000 -15.999974 336.000000
v 144.000000 16.000025 336.000000
v 144.000000 16.000002 31.999998
v 432.000000 16.000025 336.000000
v 432.000000 -15.999974 336.000000
v 432.000000 -15.999997 32.000000
v 432.000000 16.000002 31.999998
vn -1.0000 -0.0000 -0.0000
vn -0.0000 -0.0000 1.0000
vn -0.0000 -1.0000 -0.0000
vn -0.0000 1.0000 -0.0000
vn -0.0000 -0.0000 -1.0000
vn 1.0000 -0.0000 -0.0000
vt -32.000000 -16.000000
vt -336.000000 -16.000000
vt -336.000000 16.000000
vt -32.000000 16.000000
vt 432.000000 16.000000
vt 144.000000 16.000000
vt 144.000000 -16.000000
vt 432.000000 -16.000000
vt 432.000000 -336.000000
vt 144.000000 -336.000000
vt 144.000000 -32.000000
vt 432.000000 -32.000000
s 0
usemtl __TB_empty
f 105/199/79 106/200/79 107/201/79 108/202/79
f 109/203/80 107/204/80 106/205/80 110/206/80
f 110/207/81 106/208/81 105/209/81 111/210/81
f 112/210/82 108/209/82 107/208/82 109/207/82
f 111/206/83 105/205/83 108/204/83 112/203/83
f 112/202/84 109/201/84 110/200/84 111/199/84
o entity0_brush21
v 64.000000 15.999995 -64.000000
v 61.792866 15.999995 -58.850021
v 61.792866 31.999996 -58.850025
v 64.000000 31.999994 -64.000000
v 144.000000 32.000004 45.322117
v 144.000000 16.000004 45.322121
v 148.686295 16.000004 43.313709
v 148.686295 32.000004 43.313705
vn -0.9191 -0.0000 -0.3939
vn -0.7850 -0.0000 0.6195
vn -0.0000 -1.0000 -0.0000
vn -0.0000 1.0000 -0.0000
vn 0.3939 -0.0000 0.9191
vn 0.7850 -0.0000 -0.6195
vt 64.000000 16.000000
vt 58.850021 16.000000
vt 58.850021 32.000000
vt 64.000000 32.000000
vt -45.272415 32.000000
vt 58.899727 32.000000
vt 58.899727 16.000000
vt -45.272415 16.000000
vt 149.686279 -43.313709
vt 145.000000 -45.322121
vt 62.792858 58.850021
vt 64.999992 64.000000
vt 148.686295 32.000000
vt 144.000000 32.000000
vt 144.000000 16.000000
vt 148.686295 16.000000
vt -43.313709 32.000000
vt -43.313709 16.000000
s 0
usemtl __TB_empty
f 113/211/85 114/212/85 115/213/85 116/214/85
f 117/215/86 115/216/86 114/217/86 118/218/86
f 119/219/87 118/220/87 114/221/87 113/222/87
f 116/222/88 115/221/88 117/220/88 120/219/88
f 120/223/89 117/224/89 118/225/89 119/226/89
f 113/211/90 116/214/90 120/227/90 119/228/90
o entity0_brush22
v 64.000000 63.999996 -64.000008
v 61.792866 63.999996 -58.850025
v 61.792866 79.999992 -58.850029
v 64.000000 79.999992 -64.000008
v 144.000000 80.000000 45.322113
v 144.000000 64.000000 45.322117
v 148.686295 64.000000 43.313705
v 148.686295 80.000000 43.313702
vn -0.9191 -0.0000 -0.3939
vn -0.7850 -0.0000 0.6195
vn -0.0000 -1.0000 -0.0000
vn -0.0000 1.0000 -0.0000
vn 0.3939 -0.0000 0.9191
vn 0.7850 -0.0000 -0.6195
vt 64.000000 64.000000
vt 58.850021 64.000000
vt 58.850021 80.000000
vt 64.000000 80.000000
vt -45.272415 80.000000
vt 58.899727 80.000000
vt 58.899727 64.000000
vt -45.272415 64.000000
vt 149.686279 -43.313709
vt 145.000000 -45.322121
vt 62.792858 58.850021
vt 64.999992 64.000000
vt 148.686295 80.000000
vt 144.000000 80.000000
vt 144.000000 64.000000
vt 148.686295 64.000000
vt -43.313709 80.000000
vt -43.313709 64.000000
s 0
usemtl __TB_empty
f 121/229/91 122/230/91 123/231/91 124/232/91
f 125/233/92 123/234/92 122/235/92 126/236/92
f 127/237/93 126/238/93 122/239/93 121/240/93
f 124/240/94 123/239/94 125/238/94 128/237/94
f 128/241/95 125/242/95 126/243/95 127/244/95
f 121/229/96 124/232/96 128/245/96 127/246/96
o entity0_brush3
v -80.000000 -0.000005 -64.000000
v -164.686295 0.000003 43.313709
v -164.686295 16.000004 43.313709
v -80.000000 15.999995 -64.000000
v -52.686291 16.000008 91.313705
v -52.686291 0.000007 91.313705
v -32.000000 0.000004 48.000000
v -32.000000 16.000004 48.000000
vn -0.7850 -0.0000 -0.6195
vn -0.3939 -0.0000 0.9191
vn -0.0000 -1.0000 -0.0000
vn -0.0000 1.0000 -0.0000
vn 0.9024 -0.0000 0.4310
vn 0.9191 -0.0000 -0.3939
vt 64.000000 -0.000000
vt -43.313709 -0.000000
vt -43.313709 16.000000
vt 64.000000 16.000000
vt -52.686291 16.000000
vt -164.686295 16.000000
vt -164.686295 -0.000000
vt -52.686291 -0.000000
vt -32.000000 -48.000000
vt -52.686291 -91.313705
vt -164.686295 -43.313709
vt -80.000000 64.000000
vt 0.989637 0.126612
vt 0.995801 1.001687
vt 0.224420 0.985516
vt 0.220745 0.666999
vt -48.000000 16.000000
vt -91.313705 16.000000
vt -91.313705 -0.000000
vt -48.000000 -0.000000
s 0
usemtl Material.003
f 129/247/97 130/248/97 131/249/97 132/250/97
f 133/251/98 131/252/98 130/253/98 134/254/98
f 135/255/99 134/256/99 130/257/99 129/258/99
f 132/259/100 131/260/100 133/261/100 136/262/100
f 136/263/101 133/264/101 134/265/101 135/266/101
f 132/250/102 136/263/102 135/266/102 129/247/102
o entity0_brush4
v -164.686295 0.000003 43.313709
v -164.686295 0.000026 340.686279
v -164.686295 16.000025 340.686279
v -164.686295 16.000004 43.313709
v -52.686291 0.000022 292.686279
v -52.686291 0.000007 91.313705
v -52.686291 16.000008 91.313705
v -52.686291 16.000023 292.686279
vn -1.0000 -0.0000 -0.0000
vn -0.0000 -1.0000 -0.0000
vn -0.0000 1.0000 -0.0000
vn 0.3939 -0.0000 0.9191
vn 0.3939 -0.0000 -0.9191
vn 1.0000 -0.0000 -0.0000
vt -25.576410 -0.000000
vt -203.999985 -0.000000
vt -203.999985 16.000000
vt -25.576410 16.000000
vt -292.000000 51.999996
vt -340.000000 164.000000
vt -42.627430 164.000000
vt -90.627426 51.999996
vt -0.008461 -0.175373
vt 0.760093 -0.502522
vt 0.760093 1.330647
vt -0.008461 1.065998
vt 51.999996 16.000000
vt 164.000000 16.000000
vt 164.000000 -0.000000
vt 51.999996 -0.000000
vt 52.999996 -0.000000
vt 165.000000 -0.000000
vt 165.000000 16.000000
vt 52.999996 16.000000
vt -91.313705 -0.000000
vt -91.313705 16.000000
vt -292.686279 16.000000
vt -292.686279 -0.000000
s 0
usemtl Material.003
f 137/267/103 138/268/103 139/269/103 140/270/103
f 141/271/104 138/272/104 137/273/104 142/274/104
f 143/275/105 140/276/105 139/277/105 144/278/105
f 144/279/106 139/280/106 138/281/106 141/282/106
f 142/283/107 137/284/107 140/285/107 143/286/107
f 142/287/108 143/288/108 144/289/108 141/290/108
o entity0_brush5
v 36.686291 16.000008 91.313705
v 36.686291 0.000007 91.313705
v 36.686291 0.000022 292.686279
v 36.686291 16.000023 292.686279
v 148.686295 0.000003 43.313709
v 148.686295 16.000004 43.313709
v 148.686295 16.000025 340.686279
v 148.686295 0.000026 340.686279
vn -1.0000 -0.0000 -0.0000
vn -0.3939 -0.0000 -0.9191
vn -0.3939 -0.0000 0.9191
vn -0.0000 -1.0000 -0.0000
vn -0.0000 1.0000 -0.0000
vn 1.0000 -0.0000 -0.0000
vt 0.860873 0.677173
vt 0.807068 0.677173
vt 0.807068 0.000000
vt 0.860873 0.000000
vt 0.860873 0.409763
vt 0.914678 0.000000
vt 0.914678 0.409763
vt 0.914678 0.409763
vt 0.914678 0.819527
vt 0.860873 0.819527
vt 0.860873 0.409763
vt 0.000000 0.000000
vt 0.376632 0.161414
vt 0.376632 0.838586
vt 0.000000 1.000000
vt 0.117187 0.070312
vt 0.913273 0.150330
vt 0.875656 0.733342
vt 0.004922 1.000000
vt 0.753264 0.000000
vt 0.807068 1.000000
vt 0.753264 1.000000
s 0
usemtl Material.003
f 145/291/109 146/292/109 147/293/109 148/294/109
f 149/295/110 146/294/110 145/296/110 150/297/110
f 151/298/111 148/299/111 147/300/111 152/301/111
f 152/302/112 147/303/112 146/304/112 149/305/112
f 150/306/113 145/307/113 148/308/113 151/309/113
f 151/310/114 152/293/114 149/311/114 150/312/114
o entity0_brush6
v -164.686295 16.000025 340.686279
v -164.686295 0.000026 340.686279
v -80.000000 0.000034 448.000000
v -80.000000 16.000034 448.000000
v -52.686291 16.000023 292.686279
v -52.686291 0.000022 292.686279
v 36.686291 0.000022 292.686279
v 36.686291 16.000023 292.686279
v 64.000000 16.000034 448.000000
v 64.000000 0.000034 448.000000
v 148.686295 0.000026 340.686279
v 148.686295 16.000025 340.686279
vn -0.7850 -0.0000 0.6195
vn -0.3939 -0.0000 -0.9191
vn -0.0000 -0.0000 -1.0000
vn -0.0000 -0.0000 1.0000
vn -0.0000 -1.0000 -0.0000
vn -0.0000 1.0000 -0.0000
vn 0.3939 -0.0000 -0.9191
vn 0.7850 -0.0000 0.6195
vt 340.686279 16.000000
vt 340.686279 -0.000000
vt 448.000000 -0.000000
vt 448.000000 16.000000
vt -52.686291 16.000000
vt -52.686291 -0.000000
vt -164.686295 -0.000000
vt -164.686295 16.000000
vt 36.686291 -0.000000
vt 36.686291 16.000000
vt 38.400005 16.000000
vt -48.000004 16.000000
vt -48.000004 -0.000000
vt 38.400005 -0.000000
vt 64.000000 448.000000
vt -80.000000 448.000000
vt -164.686295 340.686279
vt -52.686291 292.686279
vt 36.686291 292.686279
vt 148.686295 340.686279
vt 0.503170 -0.849148
vt 0.916475 0.115228
vt 0.916475 0.884771
vt 0.503171 1.849148
vt -0.420855 1.119956
vt -0.420855 -0.119956
vt 148.686295 -0.000000
vt 148.686295 16.000000
s 0
usemtl Material.003
f 153/313/115 154/314/115 155/315/115 156/316/115
f 157/317/116 158/318/116 154/319/116 153/320/116
f 159/321/117 158/318/117 157/317/117 160/322/117
f 161/323/118 156/324/118 155/325/118 162/326/118
f 162/327/119 155/328/119 154/329/119 158/330/119 159/331/119 163/332/119
f 164/333/120 160/334/120 157/335/120 153/336/120 156/337/120 161/338/120
f 163/339/121 159/321/121 160/322/121 164/340/121
f 164/313/122 161/316/122 162/315/122 163/314/122
o entity0_brush7
v 128.000000 -0.000022 -288.000000
v 128.000000 -0.000005 -64.000000
v 128.000000 111.999992 -64.000008
v 128.000000 111.999977 -288.000000
v 144.000000 111.999992 -64.000008
v 144.000000 -0.000005 -64.000000
v 144.000000 -0.000022 -288.000000
v 144.000000 111.999977 -288.000000
vn -1.0000 -0.0000 -0.0000
vn -0.0000 -0.0000 1.0000
vn -0.0000 -1.0000 -0.0000
vn -0.0000 1.0000 -0.0000
vn -0.0000 -0.0000 -1.0000
vn 1.0000 -0.0000 -0.0000
vt 288.000000 -0.000000
vt 64.000000 -0.000000
vt 64.000000 112.000000
vt 288.000000 112.000000
vt 144.000000 112.000000
vt 128.000000 112.000000
vt 128.000000 -0.000000
vt 144.000000 -0.000000
vt 144.000000 64.000000
vt 128.000000 64.000000
vt 128.000000 288.000000
vt 144.000000 288.000000
s 0
usemtl __TB_empty
f 165/341/123 166/342/123 167/343/123 168/344/123
f 169/345/124 167/346/124 166/347/124 170/348/124
f 170/349/125 166/350/125 165/351/125 171/352/125
f 172/352/126 168/351/126 167/350/126 169/349/126
f 171/348/127 165/347/127 168/346/127 172/345/127
f 172/344/128 169/343/128 170/342/128 171/341/128
o entity0_brush8
v -160.000000 -0.000023 -304.000000
v -160.000000 -0.000022 -288.000000
v -160.000000 111.999977 -288.000000
v -160.000000 111.999977 -304.000000
v 128.000000 111.999977 -288.000000
v 128.000000 -0.000022 -288.000000
v 128.000000 -0.000023 -304.000000
v 128.000000 111.999977 -304.000000
vn -1.0000 -0.0000 -0.0000
vn -0.0000 -0.0000 1.0000
vn -0.0000 -1.0000 -0.0000
vn -0.0000 1.0000 -0.0000
vn -0.0000 -0.0000 -1.0000
vn 1.0000 -0.0000 -0.0000
vt 304.000000 -0.000000
vt 288.000000 -0.000000
vt 288.000000 112.000000
vt 304.000000 112.000000
vt 128.000000 112.000000
vt -160.000000 112.000000
vt -160.000000 -0.000000
vt 128.000000 -0.000000
vt 128.000000 288.000000
vt -160.000000 288.000000
vt -160.000000 304.000000
vt 128.000000 304.000000
s 0
usemtl __TB_empty
f 173/353/129 174/354/129 175/355/129 176/356/129
f 177/357/130 175/358/130 174/359/130 178/360/130
f 178/361/131 174/362/131 173/363/131 179/364/131
f 180/364/132 176/363/132 175/362/132 177/361/132
f 179/360/133 173/359/133 176/358/133 180/357/133
f 180/356/134 177/355/134 178/354/134 179/353/134
o entity0_brush9
v -176.000000 -0.000022 -288.000000
v -176.000000 -0.000005 -64.000000
v -176.000000 111.999992 -64.000008
v -176.000000 111.999977 -288.000000
v -160.000000 111.999992 -64.000008
v -160.000000 -0.000005 -64.000000
v -160.000000 -0.000022 -288.000000
v -160.000000 111.999977 -288.000000
vn -1.0000 -0.0000 -0.0000
vn -0.0000 -0.0000 1.0000
vn -0.0000 -1.0000 -0.0000
vn -0.0000 1.0000 -0.0000
vn -0.0000 -0.0000 -1.0000
vn 1.0000 -0.0000 -0.0000
vt 288.000000 -0.000000
vt 64.000000 -0.000000
vt 64.000000 112.000000
vt 288.000000 112.000000
vt -160.000000 112.000000
vt -176.000000 112.000000
vt -176.000000 -0.000000
vt -160.000000 -0.000000
vt -160.000000 64.000000
vt -176.000000 64.000000
vt -176.000000 288.000000
vt -160.000000 288.000000
s 0
usemtl __TB_empty
f 181/365/135 182/366/135 183/367/135 184/368/135
f 185/369/136 183/370/136 182/371/136 186/372/136
f 186/373/137 182/374/137 181/375/137 187/376/137
f 188/376/138 184/375/138 183/374/138 185/373/138
f 187/372/139 181/371/139 184/370/139 188/369/139
f 188/368/140 185/367/140 186/366/140 187/365/140
