# Blender 4.2.1 LTS
# www.blender.org
mtllib 45_degree2.mtl
o entity0_brush0
v -1.000000 0.000000 1.500000
v -1.000000 0.500000 1.500000
v -2.500004 0.000000 -2.000000
v -2.500004 0.500000 -2.000000
v 0.500000 0.000000 1.500000
v 0.500000 0.500000 1.500000
v 2.000000 0.000000 -2.000000
v 2.000000 0.500000 -2.000000
vn -0.0000 -0.0000 -1.0000
vn -0.0000 1.0000 -0.0000
vn 0.9191 -0.0000 0.3939
vn -0.0000 -1.0000 -0.0000
vn -0.9191 -0.0000 0.3939
vn -0.0000 -0.0000 1.0000
s 0
usemtl hint
f 7//1 3//1 4//1
f 7//1 4//1 8//1
f 4//2 2//2 6//2
f 4//2 6//2 8//2
f 6//3 5//3 7//3
f 6//3 7//3 8//3
f 5//4 1//4 3//4
f 5//4 3//4 7//4
f 3//5 1//5 2//5
f 3//5 2//5 4//5
f 2//6 1//6 5//6
f 2//6 5//6 6//6
o entity0_brush1
v -5.000000 -1.000000 -2.500000
v -5.000000 0.000000 -2.500000
v -5.000000 -1.000000 -9.000000
v -5.000000 0.000000 -9.000000
v 4.000000 -1.000000 -2.500000
v 4.000000 0.000000 -2.500000
v 4.000000 -1.000000 -9.000000
v 4.000000 0.000000 -9.000000
vn -0.0000 -0.0000 -1.0000
vn -0.0000 1.0000 -0.0000
vn 1.0000 -0.0000 -0.0000
vn -0.0000 -1.0000 -0.0000
vn -1.0000 -0.0000 -0.0000
vn -0.0000 -0.0000 1.0000
s 0
usemtl hint
f 15//7 11//7 12//7
f 15//7 12//7 16//7
f 12//8 10//8 14//8
f 12//8 14//8 16//8
f 14//9 13//9 15//9
f 14//9 15//9 16//9
f 13//10 9//10 11//10
f 13//10 11//10 15//10
f 11//11 9//11 10//11
f 11//11 10//11 12//11
f 10//12 9//12 13//12
f 10//12 13//12 14//12
o entity0_brush2
v 0.500000 0.000000 1.500000
v 0.500000 0.500000 1.500000
v 2.000000 0.000000 -2.000000
v 2.000000 0.500000 -2.000000
v 1.146447 0.000000 2.853553
v 1.146447 0.500000 2.853553
v 1.211080 0.000000 2.825853
v 4.646442 0.000000 1.353547
v 4.646442 0.500000 1.353547
vn -0.9024 -0.0000 0.4310
vn -0.9191 -0.0000 -0.3939
vn -0.0000 -1.0000 -0.0000
vn 0.3939 -0.0000 0.9191
vn -0.0000 1.0000 -0.0000
vn 0.7850 -0.0000 -0.6195
s 0
usemtl hint
f 21//13 22//13 17//13
f 22//13 18//13 17//13
f 18//14 20//14 19//14
f 18//14 19//14 17//14
f 19//15 24//15 23//15
f 19//15 23//15 21//15
f 19//15 21//15 17//15
f 23//16 22//16 21//16
f 23//16 24//16 22//16
f 24//16 25//16 22//16
f 25//17 20//17 18//17
f 25//17 18//17 22//17
f 20//18 25//18 24//18
f 20//18 24//18 19//18
o entity0_brush3
v -5.146447 0.000000 1.353554
v -5.146447 0.500000 1.353554
v -2.500000 0.000000 -2.000000
v -2.500000 0.500000 -2.000000
v -1.646446 0.000000 2.853553
v -1.646446 0.500000 2.853552
v -1.000000 0.000000 1.500000
v -1.000000 0.500000 1.500000
vn -0.7850 -0.0000 -0.6195
vn -0.0000 -1.0000 -0.0000
vn -0.3939 -0.0000 0.9191
vn -0.0000 1.0000 -0.0000
vn 0.9191 -0.0000 -0.3939
vn 0.9024 -0.0000 0.4310
s 0
usemtl hint
f 27//19 28//19 26//19
f 28//20 32//20 30//20
f 28//20 30//20 26//20
f 30//21 27//21 26//21
f 30//21 31//21 27//21
f 31//22 29//22 27//22
f 29//19 28//19 27//19
f 29//23 33//23 28//23
f 33//23 32//23 28//23
f 32//24 33//24 30//24
f 33//24 31//24 30//24
f 33//22 29//22 31//22
o entity0_brush4
v -5.146447 0.000000 10.646446
v -5.146447 0.000000 1.353554
v -5.146447 0.500000 10.646446
v -5.146447 0.500000 1.353554
v -1.646446 0.000000 9.146458
v -1.646447 0.000000 2.853552
v -1.646446 0.500000 9.146458
v -1.646447 0.500000 2.853552
vn -1.0000 -0.0000 -0.0000
vn -0.0000 -1.0000 -0.0000
vn 0.3939 -0.0000 0.9191
vn -0.0000 1.0000 -0.0000
vn 0.3939 -0.0000 -0.9191
vn 1.0000 -0.0000 -0.0000
s 0
usemtl hint
f 36//25 37//25 35//25
f 36//25 35//25 34//25
f 35//26 39//26 38//26
f 35//26 38//26 34//26
f 38//27 40//27 36//27
f 38//27 36//27 34//27
f 40//28 41//28 37//28
f 40//28 37//28 36//28
f 37//29 41//29 39//29
f 37//29 39//29 35//29
f 39//30 41//30 40//30
f 39//30 40//30 38//30
o entity0_brush5
v 1.146447 0.000000 2.853553
v 1.146447 0.500000 2.853553
v 1.146447 0.000000 9.146445
v 1.146447 0.500000 9.146445
v 4.646447 0.000000 1.353545
v 4.646447 0.500000 1.353545
v 4.646447 0.000000 10.646464
v 4.646447 0.500000 10.646464
vn -1.0000 -0.0000 -0.0000
vn -0.0000 -1.0000 -0.0000
vn -0.3939 -0.0000 0.9191
vn -0.0000 1.0000 -0.0000
vn -0.3939 -0.0000 -0.9191
vn 1.0000 -0.0000 -0.0000
s 0
usemtl hint
f 45//31 43//31 42//31
f 45//31 42//31 44//31
f 42//32 46//32 48//32
f 42//32 48//32 44//32
f 48//33 49//33 45//33
f 48//33 45//33 44//33
f 49//34 47//34 43//34
f 49//34 43//34 45//34
f 43//35 47//35 46//35
f 43//35 46//35 42//35
f 46//36 47//36 49//36
f 46//36 49//36 48//36
o entity0_brush6
v -5.146447 0.000000 10.646446
v -5.146447 0.500000 10.646446
v -2.500000 0.000000 14.000000
v -2.500000 0.500000 14.000000
v -1.646447 0.000000 9.146446
v -1.646447 0.500000 9.146446
v 1.146447 0.000000 9.146446
v 1.146447 0.500000 9.146446
v 2.000000 0.000000 14.000000
v 2.000000 0.500000 14.000000
v 4.646436 0.000000 10.646460
v 4.646436 0.500000 10.646460
vn 0.3939 -0.0000 -0.9191
vn -0.0000 -0.0000 -1.0000
vn -0.0000 1.0000 -0.0000
vn 0.7850 -0.0000 0.6195
vn -0.0000 -1.0000 -0.0000
vn -0.3939 -0.0000 -0.9191
vn -0.0000 -0.0000 1.0000
vn -0.7850 -0.0000 0.6195
s 0
usemtl hint
f 61//37 60//37 56//37
f 61//37 56//37 57//37
f 56//38 54//38 55//38
f 56//38 55//38 57//38
f 55//39 51//39 53//39
f 55//39 53//39 59//39
f 55//39 59//39 61//39
f 55//39 61//39 57//39
f 59//40 58//40 60//40
f 59//40 60//40 61//40
f 60//41 58//41 52//41
f 60//41 52//41 50//41
f 60//41 50//41 54//41
f 60//41 54//41 56//41
f 54//42 50//42 51//42
f 54//42 51//42 55//42
f 53//43 52//43 58//43
f 53//43 58//43 59//43
f 50//44 52//44 53//44
f 50//44 53//44 51//44
o entity0_brush7
v 4.000000 0.000000 -2.000000
v 4.000000 3.500000 -2.000000
v 4.000000 0.000000 -9.000000
v 4.000000 3.500000 -9.000000
v 4.500000 0.000000 -2.000000
v 4.500000 3.500000 -2.000000
v 4.500000 0.000000 -9.000000
v 4.500000 3.500000 -9.000000
vn -0.0000 1.0000 -0.0000
vn 1.0000 -0.0000 -0.0000
vn -0.0000 -0.0000 -1.0000
vn -1.0000 -0.0000 -0.0000
vn -0.0000 -0.0000 1.0000
vn -0.0000 -1.0000 -0.0000
s 0
usemtl lava
f 65//45 63//45 67//45
f 65//45 67//45 69//45
f 67//46 66//46 68//46
f 67//46 68//46 69//46
f 68//47 64//47 65//47
f 68//47 65//47 69//47
f 64//48 62//48 63//48
f 64//48 63//48 65//48
f 63//49 62//49 66//49
f 63//49 66//49 67//49
f 66//50 62//50 64//50
f 66//50 64//50 68//50
o entity0_brush8
v -5.000000 0.000000 -9.000000
v -5.000000 3.500000 -9.000000
v -5.000000 0.000000 -9.500000
v -5.000000 3.500000 -9.500000
v 4.000000 0.000000 -9.000000
v 4.000000 3.500000 -9.000000
v 4.000000 0.000000 -9.500000
v 4.000000 3.500000 -9.500000
vn -0.0000 -1.0000 -0.0000
vn -0.0000 -0.0000 1.0000
vn -1.0000 -0.0000 -0.0000
vn -0.0000 -0.0000 -1.0000
vn 1.0000 -0.0000 -0.0000
vn -0.0000 1.0000 -0.0000
s 0
usemtl lava
f 72//51 76//51 74//51
f 72//51 74//51 70//51
f 74//52 75//52 71//52
f 74//52 71//52 70//52
f 71//53 73//53 72//53
f 71//53 72//53 70//53
f 73//54 77//54 76//54
f 73//54 76//54 72//54
f 76//55 77//55 75//55
f 76//55 75//55 74//55
f 75//56 77//56 73//56
f 75//56 73//56 71//56
o entity0_brush9
v -5.500000 0.000000 -2.000000
v -5.500000 3.500000 -2.000000
v -5.500000 0.000000 -9.000000
v -5.500000 3.500000 -9.000000
v -5.000000 0.000000 -2.000000
v -5.000000 3.500000 -2.000000
v -5.000000 0.000000 -9.000000
v -5.000000 3.500000 -9.000000
vn -0.0000 1.0000 -0.0000
vn 1.0000 -0.0000 -0.0000
vn -0.0000 -0.0000 -1.0000
vn -1.0000 -0.0000 -0.0000
vn -0.0000 -0.0000 1.0000
vn -0.0000 -1.0000 -0.0000
s 0
usemtl lava
f 81//57 79//57 83//57
f 81//57 83//57 85//57
f 83//58 82//58 84//58
f 83//58 84//58 85//58
f 84//59 80//59 81//59
f 84//59 81//59 85//59
f 80//60 78//60 79//60
f 80//60 79//60 81//60
f 79//61 78//61 82//61
f 79//61 82//61 83//61
f 82//62 78//62 80//62
f 82//62 80//62 84//62
o entity0_brush10
v 2.000000 0.000000 -2.000000
v 2.000000 2.500000 -2.000000
v 2.166515 0.000000 -2.388536
v 2.166515 2.500000 -2.388536
v 4.646440 0.000000 1.353557
v 4.646440 2.500000 1.353556
v 4.999994 0.000000 1.202024
v 4.999994 2.500000 1.202024
vn -0.9191 -0.0000 -0.3939
vn -0.0000 -1.0000 -0.0000
vn -0.7850 -0.0000 0.6195
vn -0.0000 1.0000 -0.0000
vn 0.7850 -0.0000 -0.6195
vn 0.3939 -0.0000 0.9191
s 0
usemtl lava
f 87//63 89//63 88//63
f 87//63 88//63 86//63
f 88//64 92//64 90//64
f 88//64 90//64 86//64
f 90//65 91//65 87//65
f 90//65 87//65 86//65
f 91//66 93//66 89//66
f 91//66 89//66 87//66
f 89//67 93//67 92//67
f 89//67 92//67 88//67
f 92//68 93//68 91//68
f 92//68 91//68 90//68
o entity0_brush11
v -5.500000 0.000000 1.202031
v -5.500000 2.500000 1.202031
v -2.666516 0.000000 -2.388537
v -2.666516 2.500000 -2.388537
v -5.146441 0.000000 1.353547
v -5.146441 2.500000 1.353546
v -2.513195 0.000000 -1.983280
v -2.500000 0.000000 -2.000000
v -2.513194 2.500000 -1.983280
v -2.500000 2.500000 -2.000000
vn -0.3939 -0.0000 0.9192
vn -0.7850 -0.0000 -0.6195
vn -0.0000 -1.0000 -0.0000
vn 0.7850 -0.0000 0.6195
vn -0.0000 1.0000 -0.0000
vn 0.9191 -0.0000 -0.3939
s 0
usemtl lava
f 98//69 95//69 94//69
f 95//70 97//70 94//70
f 97//70 96//70 94//70
f 96//71 101//71 100//71
f 96//71 100//71 98//71
f 96//71 98//71 94//71
f 99//69 95//69 98//69
f 100//72 102//72 98//72
f 102//72 99//72 98//72
f 99//73 102//73 95//73
f 102//73 97//73 95//73
f 102//73 103//73 97//73
f 103//74 101//74 97//74
f 101//74 96//74 97//74
f 101//72 103//72 102//72
f 101//72 102//72 100//72
o entity0_brush12
v 1.000000 0.000000 -2.000000
v 1.000000 3.500000 -2.000000
v 1.000000 0.000000 -2.500000
v 1.000000 3.500000 -2.500000
v 4.000000 0.000000 -2.000000
v 4.000000 3.500000 -2.000000
v 4.000000 0.000000 -2.500000
v 4.000000 3.500000 -2.500000
vn 1.0000 -0.0000 -0.0000
vn -0.0000 -0.0000 -1.0000
vn -0.0000 1.0000 -0.0000
vn -0.0000 -0.0000 1.0000
vn -0.0000 -1.0000 -0.0000
vn -1.0000 -0.0000 -0.0000
s 0
usemtl lava
f 109//75 108//75 110//75
f 109//75 110//75 111//75
f 110//76 106//76 107//76
f 110//76 107//76 111//76
f 107//77 105//77 109//77
f 107//77 109//77 111//77
f 105//78 104//78 108//78
f 105//78 108//78 109//78
f 108//79 104//79 106//79
f 108//79 106//79 110//79
f 106//80 104//80 105//80
f 106//80 105//80 107//80
o entity0_brush13
v -5.000000 0.000000 -2.000000
v -5.000000 3.500000 -2.000000
v -5.000000 0.000000 -2.500000
v -5.000000 3.500000 -2.500000
v -2.000000 0.000000 -2.000000
v -2.000000 3.500000 -2.000000
v -2.000000 0.000000 -2.500000
v -2.000000 3.500000 -2.500000
vn 1.0000 -0.0000 -0.0000
vn -0.0000 -0.0000 -1.0000
vn -0.0000 1.0000 -0.0000
vn -0.0000 -0.0000 1.0000
vn -0.0000 -1.0000 -0.0000
vn -1.0000 -0.0000 -0.0000
s 0
usemtl lava
f 117//81 116//81 118//81
f 117//81 118//81 119//81
f 118//82 114//82 115//82
f 118//82 115//82 119//82
f 115//83 113//83 117//83
f 115//83 117//83 119//83
f 113//84 112//84 116//84
f 113//84 116//84 117//84
f 116//85 112//85 114//85
f 116//85 114//85 118//85
f 114//86 112//86 113//86
f 114//86 113//86 115//86
o entity0_brush14
v -2.000000 0.000000 -2.000000
v -2.000000 0.500000 -2.000000
v -2.000000 0.000000 -2.500000
v -2.000000 0.500000 -2.500000
v 1.000000 0.000000 -2.000000
v 1.000000 0.500000 -2.000000
v 1.000000 0.000000 -2.500000
v 1.000000 0.500000 -2.500000
vn -0.0000 -0.0000 -1.0000
vn -0.0000 1.0000 -0.0000
vn 1.0000 -0.0000 -0.0000
vn -0.0000 -1.0000 -0.0000
vn -1.0000 -0.0000 -0.0000
vn -0.0000 -0.0000 1.0000
s 0
usemtl lava
f 126//87 122//87 123//87
f 126//87 123//87 127//87
f 123//88 121//88 125//88
f 123//88 125//88 127//88
f 125//89 124//89 126//89
f 125//89 126//89 127//89
f 124//90 120//90 122//90
f 124//90 122//90 126//90
f 122//91 120//91 121//91
f 122//91 121//91 123//91
f 121//92 120//92 124//92
f 121//92 124//92 125//92
o entity0_brush15
v -2.000000 2.500000 -2.000000
v -2.000000 3.500000 -2.000000
v -2.000000 2.500000 -2.500000
v -2.000000 3.500000 -2.500000
v 1.000000 2.500000 -2.000000
v 1.000000 3.500000 -2.000000
v 1.000000 2.500000 -2.500000
v 1.000000 3.500000 -2.500000
vn -0.0000 -1.0000 -0.0000
vn -0.0000 -0.0000 1.0000
vn -1.0000 -0.0000 -0.0000
vn -0.0000 -0.0000 -1.0000
vn 1.0000 -0.0000 -0.0000
vn -0.0000 1.0000 -0.0000
s 0
usemtl lava
f 130//93 134//93 132//93
f 130//93 132//93 128//93
f 132//94 133//94 129//94
f 132//94 129//94 128//94
f 129//95 131//95 130//95
f 129//95 130//95 128//95
f 131//96 135//96 134//96
f 131//96 134//96 130//96
f 134//97 135//97 133//97
f 134//97 133//97 132//97
f 133//98 135//98 131//98
f 133//98 131//98 129//98
o entity0_brush16
v -5.000000 3.000000 -2.500000
v -5.000000 3.500000 -2.500000
v -5.000000 3.000000 -9.000000
v -5.000000 3.500000 -9.000000
v 4.000000 3.000000 -2.500000
v 4.000000 3.500000 -2.500000
v 4.000000 3.000000 -9.000000
v 4.000000 3.500000 -9.000000
vn -0.0000 -0.0000 -1.0000
vn -0.0000 1.0000 -0.0000
vn 1.0000 -0.0000 -0.0000
vn -0.0000 -1.0000 -0.0000
vn -1.0000 -0.0000 -0.0000
vn -0.0000 -0.0000 1.0000
s 0
usemtl slime
f 142//99 138//99 139//99
f 142//99 139//99 143//99
f 139//100 137//100 141//100
f 139//100 141//100 143//100
f 141//101 140//101 142//101
f 141//101 142//101 143//101
f 140//102 136//102 138//102
f 140//102 138//102 142//102
f 138//103 136//103 137//103
f 138//103 137//103 139//103
f 137//104 136//104 140//104
f 137//104 140//104 141//104
o entity0_brush17
v -5.146447 2.500000 1.353554
v -5.146447 3.000000 1.353554
v -2.500000 2.500000 -2.000000
v -2.500000 3.000000 -2.000000
v -1.646446 2.500000 2.853553
v -1.646446 3.000000 2.853552
v -1.000000 2.500000 1.500000
v -1.000000 3.000000 1.500000
vn -0.7850 -0.0000 -0.6195
vn -0.0000 -1.0000 -0.0000
vn -0.3939 -0.0000 0.9191
vn -0.0000 1.0000 -0.0000
vn 0.9191 -0.0000 -0.3939
vn 0.9024 -0.0000 0.4310
s 0
usemtl detail
f 145//105 146//105 144//105
f 146//106 150//106 148//106
f 146//106 148//106 144//106
f 148//107 145//107 144//107
f 148//107 149//107 145//107
f 149//108 147//108 145//108
f 147//105 146//105 145//105
f 147//109 151//109 146//109
f 151//109 150//109 146//109
f 150//110 151//110 148//110
f 151//110 149//110 148//110
f 151//108 147//108 149//108
o entity0_brush18
v 0.500000 2.500000 1.500000
v 0.500000 3.000000 1.500000
v 2.000000 2.500000 -2.000000
v 2.000000 3.000000 -2.000000
v 1.146447 2.500000 2.853553
v 1.146447 3.000000 2.853553
v 1.211080 2.500000 2.825853
v 4.646442 2.500000 1.353547
v 4.646442 3.000000 1.353547
vn -0.9024 -0.0000 0.4310
vn -0.9191 -0.0000 -0.3939
vn -0.0000 -1.0000 -0.0000
vn 0.1483 -0.9889 -0.0000
vn 0.3939 -0.0000 0.9191
vn -0.0000 1.0000 -0.0000
vn 0.7850 -0.0000 -0.6195
s 0
usemtl detail
f 156//111 157//111 152//111
f 157//111 153//111 152//111
f 153//112 155//112 154//112
f 153//112 154//112 152//112
f 154//113 159//113 152//113
f 159//114 158//114 156//114
f 159//113 156//113 152//113
f 158//115 157//115 156//115
f 158//115 159//115 157//115
f 159//115 160//115 157//115
f 160//116 155//116 157//116
f 155//116 153//116 157//116
f 155//117 160//117 159//117
f 155//117 159//117 154//117
o entity0_brush19
v -1.000000 2.500000 1.500000
v -1.000000 3.000000 1.500000
v -2.500004 2.500000 -2.000000
v -2.500004 3.000000 -2.000000
v 0.500000 2.500000 1.500000
v 0.500000 3.000000 1.500000
v 2.000000 2.500000 -2.000000
v 2.000000 3.000000 -2.000000
vn -0.0000 -0.0000 -1.0000
vn -0.0000 1.0000 -0.0000
vn 0.9191 -0.0000 0.3939
vn -0.0000 -1.0000 -0.0000
vn -0.9191 -0.0000 0.3939
vn -0.0000 -0.0000 1.0000
s 0
usemtl detail
f 167//118 163//118 164//118
f 167//118 164//118 168//118
f 164//119 162//119 166//119
f 164//119 166//119 168//119
f 166//120 165//120 167//120
f 166//120 167//120 168//120
f 165//121 161//121 163//121
f 165//121 163//121 167//121
f 163//122 161//122 162//122
f 163//122 162//122 164//122
f 162//123 161//123 165//123
f 162//123 165//123 166//123
o entity0_brush20
v 4.500000 -0.500000 10.500000
v 4.500000 0.500000 10.500000
v 4.500000 -0.500000 1.000000
v 4.500000 0.500000 1.000000
v 13.500000 -0.500000 10.500000
v 13.500000 0.500000 10.500000
v 13.500000 -0.500000 1.000000
v 13.500000 0.500000 1.000000
vn -1.0000 -0.0000 -0.0000
vn -0.0000 -1.0000 -0.0000
vn -0.0000 -0.0000 1.0000
vn -0.0000 1.0000 -0.0000
vn -0.0000 -0.0000 -1.0000
vn 1.0000 -0.0000 -0.0000
s 0
usemtl detail
f 170//124 172//124 171//124
f 170//124 171//124 169//124
f 171//125 175//125 173//125
f 171//125 173//125 169//125
f 173//126 174//126 170//126
f 173//126 170//126 169//126
f 174//127 176//127 172//127
f 174//127 172//127 170//127
f 172//128 176//128 175//128
f 172//128 175//128 171//128
f 175//129 176//129 174//129
f 175//129 174//129 173//129
o entity0_brush21
v 1.931027 0.500000 -1.839063
v 1.931027 1.000000 -1.839063
v 2.000000 0.500000 -2.000000
v 2.000000 1.000000 -2.000000
v 4.499993 0.500000 1.416319
v 4.499993 1.000000 1.416319
v 4.646442 0.500000 1.353547
v 4.646442 1.000000 1.353547
vn -0.9191 -0.0000 -0.3939
vn -0.0000 -1.0000 -0.0000
vn -0.7850 -0.0000 0.6195
vn -0.0000 1.0000 -0.0000
vn 0.7850 -0.0000 -0.6195
vn 0.3940 -0.0000 0.9191
s 0
usemtl slime
f 178//130 180//130 179//130
f 178//130 179//130 177//130
f 179//131 183//131 181//131
f 179//131 181//131 177//131
f 181//132 182//132 177//132
f 182//132 178//132 177//132
f 182//133 184//133 180//133
f 182//133 180//133 178//133
f 180//134 184//134 183//134
f 180//134 183//134 179//134
f 183//135 182//135 181//135
f 183//135 184//135 182//135
o entity0_brush22
v 1.931027 2.000000 -1.839063
v 1.931027 2.500000 -1.839063
v 2.000000 2.000000 -2.000000
v 2.000000 2.500000 -2.000000
v 4.499993 2.000000 1.416319
v 4.499993 2.500000 1.416319
v 4.646442 2.000000 1.353547
v 4.646442 2.500000 1.353547
vn -0.9191 -0.0000 -0.3939
vn -0.0000 -1.0000 -0.0000
vn -0.7850 -0.0000 0.6195
vn -0.0000 1.0000 -0.0000
vn 0.7850 -0.0000 -0.6195
vn 0.3940 -0.0000 0.9191
s 0
usemtl worldspawn
f 186//136 188//136 187//136
f 186//136 187//136 185//136
f 187//137 191//137 189//137
f 187//137 189//137 185//137
f 189//138 190//138 185//138
f 190//138 186//138 185//138
f 190//139 192//139 188//139
f 190//139 188//139 186//139
f 188//140 192//140 191//140
f 188//140 191//140 187//140
f 191//141 190//141 189//141
f 191//141 192//141 190//141
